# Blender v2.93.3 OBJ File: 'level_001.blend'
# www.blender.org
mtllib level_001.mtl
o Cube
v 12.019733 1.450212 -20.776968
v 12.019733 -1.321130 -20.776968
v 12.019733 1.450212 20.776968
v 12.019733 -1.321130 20.776968
v -12.019733 1.450212 -20.776968
v -12.019733 -1.321130 -20.776968
v -12.019733 1.450212 20.776968
v -12.019733 -1.321130 20.776968
vt 0.625000 0.500000
vt 0.875000 0.500000
vt 0.875000 0.750000
vt 0.625000 0.750000
vt 0.375000 0.750000
vt 0.625000 1.000000
vt 0.375000 1.000000
vt 0.375000 0.000000
vt 0.625000 0.000000
vt 0.625000 0.250000
vt 0.375000 0.250000
vt 0.125000 0.500000
vt 0.375000 0.500000
vt 0.125000 0.750000
vn 0.0000 1.0000 0.0000
vn 0.0000 0.0000 1.0000
vn -1.0000 0.0000 0.0000
vn 0.0000 -1.0000 0.0000
vn 1.0000 0.0000 0.0000
vn 0.0000 0.0000 -1.0000
usemtl Material
s off
f 1/1/1 5/2/1 7/3/1 3/4/1
f 4/5/2 3/4/2 7/6/2 8/7/2
f 8/8/3 7/9/3 5/10/3 6/11/3
f 6/12/4 2/13/4 4/5/4 8/14/4
f 2/13/5 1/1/5 3/4/5 4/5/5
f 6/11/6 5/10/6 1/1/6 2/13/6
o Cube.001
v 5.474842 3.000000 -16.700998
v 5.474842 1.000000 -16.700998
v 5.474842 3.000000 -5.299001
v 5.474842 1.000000 -5.299001
v -5.474842 3.000000 -16.700998
v -5.474842 1.000000 -16.700998
v -5.474842 3.000000 -5.299001
v -5.474842 1.000000 -5.299001
v 5.474842 5.000000 -28.102997
v 5.474842 3.000000 -28.102997
v 5.474842 5.000000 -16.700998
v 5.474842 3.000000 -16.700998
v -5.474842 5.000000 -28.102997
v -5.474842 3.000000 -28.102997
v -5.474842 5.000000 -16.700998
v -5.474842 3.000000 -16.700998
v 5.474842 7.000000 -39.504993
v 5.474842 5.000000 -39.504993
v 5.474842 7.000000 -28.102997
v 5.474842 5.000000 -28.102997
v -5.474842 7.000000 -39.504993
v -5.474842 5.000000 -39.504993
v -5.474842 7.000000 -28.102997
v -5.474842 5.000000 -28.102997
v 5.474842 9.000000 -50.906990
v 5.474842 7.000000 -50.906990
v 5.474842 9.000000 -39.504993
v 5.474842 7.000000 -39.504993
v -5.474842 9.000000 -50.906990
v -5.474842 7.000000 -50.906990
v -5.474842 9.000000 -39.504993
v -5.474842 7.000000 -39.504993
v 5.474842 11.000000 -62.308990
v 5.474842 9.000000 -62.308990
v 5.474842 11.000000 -50.906990
v 5.474842 9.000000 -50.906990
v -5.474842 11.000000 -62.308990
v -5.474842 9.000000 -62.308990
v -5.474842 11.000000 -50.906990
v -5.474842 9.000000 -50.906990
v 5.474842 13.000000 -73.710983
v 5.474842 11.000000 -73.710983
v 5.474842 13.000000 -62.308990
v 5.474842 11.000000 -62.308990
v -5.474842 13.000000 -73.710983
v -5.474842 11.000000 -73.710983
v -5.474842 13.000000 -62.308990
v -5.474842 11.000000 -62.308990
v 5.474842 15.000000 -85.112984
v 5.474842 13.000000 -85.112984
v 5.474842 15.000000 -73.710983
v 5.474842 13.000000 -73.710983
v -5.474842 15.000000 -85.112984
v -5.474842 13.000000 -85.112984
v -5.474842 15.000000 -73.710983
v -5.474842 13.000000 -73.710983
v 5.474842 17.000000 -96.514984
v 5.474842 15.000000 -96.514984
v 5.474842 17.000000 -85.112984
v 5.474842 15.000000 -85.112984
v -5.474842 17.000000 -96.514984
v -5.474842 15.000000 -96.514984
v -5.474842 17.000000 -85.112984
v -5.474842 15.000000 -85.112984
vt 0.625000 0.500000
vt 0.875000 0.500000
vt 0.875000 0.750000
vt 0.625000 0.750000
vt 0.375000 0.750000
vt 0.625000 1.000000
vt 0.375000 1.000000
vt 0.375000 0.000000
vt 0.625000 0.000000
vt 0.625000 0.250000
vt 0.375000 0.250000
vt 0.125000 0.500000
vt 0.375000 0.500000
vt 0.125000 0.750000
vt 0.625000 0.500000
vt 0.875000 0.500000
vt 0.875000 0.750000
vt 0.625000 0.750000
vt 0.375000 0.750000
vt 0.625000 1.000000
vt 0.375000 1.000000
vt 0.375000 0.000000
vt 0.625000 0.000000
vt 0.625000 0.250000
vt 0.375000 0.250000
vt 0.125000 0.500000
vt 0.375000 0.500000
vt 0.125000 0.750000
vt 0.625000 0.500000
vt 0.875000 0.500000
vt 0.875000 0.750000
vt 0.625000 0.750000
vt 0.375000 0.750000
vt 0.625000 1.000000
vt 0.375000 1.000000
vt 0.375000 0.000000
vt 0.625000 0.000000
vt 0.625000 0.250000
vt 0.375000 0.250000
vt 0.125000 0.500000
vt 0.375000 0.500000
vt 0.125000 0.750000
vt 0.625000 0.500000
vt 0.875000 0.500000
vt 0.875000 0.750000
vt 0.625000 0.750000
vt 0.375000 0.750000
vt 0.625000 1.000000
vt 0.375000 1.000000
vt 0.375000 0.000000
vt 0.625000 0.000000
vt 0.625000 0.250000
vt 0.375000 0.250000
vt 0.125000 0.500000
vt 0.375000 0.500000
vt 0.125000 0.750000
vt 0.625000 0.500000
vt 0.875000 0.500000
vt 0.875000 0.750000
vt 0.625000 0.750000
vt 0.375000 0.750000
vt 0.625000 1.000000
vt 0.375000 1.000000
vt 0.375000 0.000000
vt 0.625000 0.000000
vt 0.625000 0.250000
vt 0.375000 0.250000
vt 0.125000 0.500000
vt 0.375000 0.500000
vt 0.125000 0.750000
vt 0.625000 0.500000
vt 0.875000 0.500000
vt 0.875000 0.750000
vt 0.625000 0.750000
vt 0.375000 0.750000
vt 0.625000 1.000000
vt 0.375000 1.000000
vt 0.375000 0.000000
vt 0.625000 0.000000
vt 0.625000 0.250000
vt 0.375000 0.250000
vt 0.125000 0.500000
vt 0.375000 0.500000
vt 0.125000 0.750000
vt 0.625000 0.500000
vt 0.875000 0.500000
vt 0.875000 0.750000
vt 0.625000 0.750000
vt 0.375000 0.750000
vt 0.625000 1.000000
vt 0.375000 1.000000
vt 0.375000 0.000000
vt 0.625000 0.000000
vt 0.625000 0.250000
vt 0.375000 0.250000
vt 0.125000 0.500000
vt 0.375000 0.500000
vt 0.125000 0.750000
vt 0.625000 0.500000
vt 0.875000 0.500000
vt 0.875000 0.750000
vt 0.625000 0.750000
vt 0.375000 0.750000
vt 0.625000 1.000000
vt 0.375000 1.000000
vt 0.375000 0.000000
vt 0.625000 0.000000
vt 0.625000 0.250000
vt 0.375000 0.250000
vt 0.125000 0.500000
vt 0.375000 0.500000
vt 0.125000 0.750000
vn 0.0000 1.0000 0.0000
vn 0.0000 0.0000 1.0000
vn -1.0000 0.0000 0.0000
vn 0.0000 -1.0000 0.0000
vn 1.0000 0.0000 0.0000
vn 0.0000 0.0000 -1.0000
usemtl Material.001
s off
f 9/15/7 13/16/7 15/17/7 11/18/7
f 12/19/8 11/18/8 15/20/8 16/21/8
f 16/22/9 15/23/9 13/24/9 14/25/9
f 14/26/10 10/27/10 12/19/10 16/28/10
f 10/27/11 9/15/11 11/18/11 12/19/11
f 14/25/12 13/24/12 9/15/12 10/27/12
f 17/29/7 21/30/7 23/31/7 19/32/7
f 20/33/8 19/32/8 23/34/8 24/35/8
f 24/36/9 23/37/9 21/38/9 22/39/9
f 22/40/10 18/41/10 20/33/10 24/42/10
f 18/41/11 17/29/11 19/32/11 20/33/11
f 22/39/12 21/38/12 17/29/12 18/41/12
f 25/43/7 29/44/7 31/45/7 27/46/7
f 28/47/8 27/46/8 31/48/8 32/49/8
f 32/50/9 31/51/9 29/52/9 30/53/9
f 30/54/10 26/55/10 28/47/10 32/56/10
f 26/55/11 25/43/11 27/46/11 28/47/11
f 30/53/12 29/52/12 25/43/12 26/55/12
f 33/57/7 37/58/7 39/59/7 35/60/7
f 36/61/8 35/60/8 39/62/8 40/63/8
f 40/64/9 39/65/9 37/66/9 38/67/9
f 38/68/10 34/69/10 36/61/10 40/70/10
f 34/69/11 33/57/11 35/60/11 36/61/11
f 38/67/12 37/66/12 33/57/12 34/69/12
f 41/71/7 45/72/7 47/73/7 43/74/7
f 44/75/8 43/74/8 47/76/8 48/77/8
f 48/78/9 47/79/9 45/80/9 46/81/9
f 46/82/10 42/83/10 44/75/10 48/84/10
f 42/83/11 41/71/11 43/74/11 44/75/11
f 46/81/12 45/80/12 41/71/12 42/83/12
f 49/85/7 53/86/7 55/87/7 51/88/7
f 52/89/8 51/88/8 55/90/8 56/91/8
f 56/92/9 55/93/9 53/94/9 54/95/9
f 54/96/10 50/97/10 52/89/10 56/98/10
f 50/97/11 49/85/11 51/88/11 52/89/11
f 54/95/12 53/94/12 49/85/12 50/97/12
f 57/99/7 61/100/7 63/101/7 59/102/7
f 60/103/8 59/102/8 63/104/8 64/105/8
f 64/106/9 63/107/9 61/108/9 62/109/9
f 62/110/10 58/111/10 60/103/10 64/112/10
f 58/111/11 57/99/11 59/102/11 60/103/11
f 62/109/12 61/108/12 57/99/12 58/111/12
f 65/113/7 69/114/7 71/115/7 67/116/7
f 68/117/8 67/116/8 71/118/8 72/119/8
f 72/120/9 71/121/9 69/122/9 70/123/9
f 70/124/10 66/125/10 68/117/10 72/126/10
f 66/125/11 65/113/11 67/116/11 68/117/11
f 70/123/12 69/122/12 65/113/12 66/125/12
o Cube.002
v -21.464302 -0.270772 -87.368103
v -21.464302 18.270771 -87.368103
v -21.464302 -0.270772 -94.631897
v -21.464302 18.270771 -94.631897
v -10.535698 -0.270772 -87.368103
v -10.535698 18.270771 -87.368103
v -10.535698 -0.270772 -94.631897
v -10.535698 18.270771 -94.631897
vt 0.375000 0.000000
vt 0.625000 0.000000
vt 0.625000 0.250000
vt 0.375000 0.250000
vt 0.625000 0.500000
vt 0.375000 0.500000
vt 0.625000 0.750000
vt 0.375000 0.750000
vt 0.625000 1.000000
vt 0.375000 1.000000
vt 0.125000 0.500000
vt 0.125000 0.750000
vt 0.875000 0.500000
vt 0.875000 0.750000
vn -1.0000 0.0000 0.0000
vn 0.0000 0.0000 -1.0000
vn 1.0000 0.0000 0.0000
vn 0.0000 0.0000 1.0000
vn 0.0000 -1.0000 0.0000
vn 0.0000 1.0000 0.0000
usemtl None
s off
f 73/127/13 74/128/13 76/129/13 75/130/13
f 75/130/14 76/129/14 80/131/14 79/132/14
f 79/132/15 80/131/15 78/133/15 77/134/15
f 77/134/16 78/133/16 74/135/16 73/136/16
f 75/137/17 79/132/17 77/134/17 73/138/17
f 80/131/18 76/139/18 74/140/18 78/133/18
o Cube.004_Cube.003
v -31.059330 11.000000 -87.996216
v -31.059330 13.000000 -87.996216
v -31.059330 11.000000 -94.003784
v -31.059330 13.000000 -94.003784
v -20.130726 11.000000 -87.996216
v -20.130726 13.000000 -87.996216
v -20.130726 11.000000 -94.003784
v -20.130726 13.000000 -94.003784
vt 0.375000 0.000000
vt 0.625000 0.000000
vt 0.625000 0.250000
vt 0.375000 0.250000
vt 0.625000 0.500000
vt 0.375000 0.500000
vt 0.625000 0.750000
vt 0.375000 0.750000
vt 0.625000 1.000000
vt 0.375000 1.000000
vt 0.125000 0.500000
vt 0.125000 0.750000
vt 0.875000 0.500000
vt 0.875000 0.750000
vn -1.0000 0.0000 0.0000
vn 0.0000 0.0000 -1.0000
vn 1.0000 0.0000 0.0000
vn 0.0000 0.0000 1.0000
vn 0.0000 -1.0000 0.0000
vn 0.0000 1.0000 0.0000
usemtl None
s off
f 81/141/19 82/142/19 84/143/19 83/144/19
f 83/144/20 84/143/20 88/145/20 87/146/20
f 87/146/21 88/145/21 86/147/21 85/148/21
f 85/148/22 86/147/22 82/149/22 81/150/22
f 83/151/23 87/146/23 85/148/23 81/152/23
f 88/145/24 84/153/24 82/154/24 86/147/24
o Cube.006
v -38.435902 20.400850 -83.265144
v -38.435902 12.180578 -83.265144
v -38.435902 20.400850 -98.734856
v -38.435902 12.180578 -98.734856
v -27.507298 20.400850 -83.265144
v -27.507298 12.180578 -83.265144
v -27.507298 20.400850 -98.734856
v -27.507298 12.180578 -98.734856
vt 0.375000 0.000000
vt 0.375000 0.250000
vt 0.625000 0.250000
vt 0.625000 0.000000
vt 0.375000 0.500000
vt 0.625000 0.500000
vt 0.375000 0.750000
vt 0.625000 0.750000
vt 0.375000 1.000000
vt 0.625000 1.000000
vt 0.125000 0.500000
vt 0.125000 0.750000
vt 0.875000 0.750000
vt 0.875000 0.500000
vn -1.0000 0.0000 0.0000
vn 0.0000 0.0000 -1.0000
vn 1.0000 0.0000 0.0000
vn 0.0000 0.0000 1.0000
vn 0.0000 1.0000 0.0000
vn 0.0000 -1.0000 0.0000
usemtl None
s off
f 89/155/25 91/156/25 92/157/25 90/158/25
f 91/156/26 95/159/26 96/160/26 92/157/26
f 95/159/27 93/161/27 94/162/27 96/160/27
f 93/161/28 89/163/28 90/164/28 94/162/28
f 91/165/29 89/166/29 93/161/29 95/159/29
f 96/160/30 94/162/30 90/167/30 92/168/30
o Cube.003_Cube.009
v -22.441540 12.895256 -88.165871
v -22.441540 13.807936 -88.165871
v -22.441540 12.895256 -91.062553
v -22.441540 13.807936 -91.062553
v -20.965038 12.895256 -88.165871
v -20.965038 13.807936 -88.165871
v -20.965038 12.895256 -91.062553
v -20.965038 13.807936 -91.062553
vt 0.375000 0.000000
vt 0.625000 0.000000
vt 0.625000 0.250000
vt 0.375000 0.250000
vt 0.625000 0.500000
vt 0.375000 0.500000
vt 0.625000 0.750000
vt 0.375000 0.750000
vt 0.625000 1.000000
vt 0.375000 1.000000
vt 0.125000 0.500000
vt 0.125000 0.750000
vt 0.875000 0.500000
vt 0.875000 0.750000
vn -1.0000 0.0000 0.0000
vn 0.0000 0.0000 -1.0000
vn 1.0000 0.0000 0.0000
vn 0.0000 0.0000 1.0000
vn 0.0000 -1.0000 0.0000
vn 0.0000 1.0000 0.0000
usemtl None
s off
f 97/169/31 98/170/31 100/171/31 99/172/31
f 99/172/32 100/171/32 104/173/32 103/174/32
f 103/174/33 104/173/33 102/175/33 101/176/33
f 101/176/34 102/175/34 98/177/34 97/178/34
f 99/179/35 103/174/35 101/176/35 97/180/35
f 104/173/36 100/181/36 98/182/36 102/175/36
o Cube.005_Cube.010
v -22.452986 14.546627 -91.511864
v -22.452986 15.275053 -91.511864
v -22.452986 14.546627 -93.823753
v -22.452986 15.275053 -93.823753
v -21.274565 14.546627 -91.511864
v -21.274565 15.275053 -91.511864
v -21.274565 14.546627 -93.823753
v -21.274565 15.275053 -93.823753
vt 0.375000 0.000000
vt 0.625000 0.000000
vt 0.625000 0.250000
vt 0.375000 0.250000
vt 0.625000 0.500000
vt 0.375000 0.500000
vt 0.625000 0.750000
vt 0.375000 0.750000
vt 0.625000 1.000000
vt 0.375000 1.000000
vt 0.125000 0.500000
vt 0.125000 0.750000
vt 0.875000 0.500000
vt 0.875000 0.750000
vn -1.0000 0.0000 0.0000
vn 0.0000 0.0000 -1.0000
vn 1.0000 0.0000 0.0000
vn 0.0000 0.0000 1.0000
vn 0.0000 -1.0000 0.0000
vn 0.0000 1.0000 0.0000
usemtl None
s off
f 105/183/37 106/184/37 108/185/37 107/186/37
f 107/186/38 108/185/38 112/187/38 111/188/38
f 111/188/39 112/187/39 110/189/39 109/190/39
f 109/190/40 110/189/40 106/191/40 105/192/40
f 107/193/41 111/188/41 109/190/41 105/194/41
f 112/187/42 108/195/42 106/196/42 110/189/42
o Cube.007_Cube.011
v -23.437962 15.706138 -87.908844
v -23.437962 16.434563 -87.908844
v -23.437962 15.706138 -90.220734
v -23.437962 16.434563 -90.220734
v -21.119473 15.706138 -87.908844
v -21.119473 16.434563 -87.908844
v -21.119473 15.706138 -90.220734
v -21.119473 16.434563 -90.220734
vt 0.375000 0.000000
vt 0.625000 0.000000
vt 0.625000 0.250000
vt 0.375000 0.250000
vt 0.625000 0.500000
vt 0.375000 0.500000
vt 0.625000 0.750000
vt 0.375000 0.750000
vt 0.625000 1.000000
vt 0.375000 1.000000
vt 0.125000 0.500000
vt 0.125000 0.750000
vt 0.875000 0.500000
vt 0.875000 0.750000
vn -1.0000 0.0000 0.0000
vn 0.0000 0.0000 -1.0000
vn 1.0000 0.0000 0.0000
vn 0.0000 0.0000 1.0000
vn 0.0000 -1.0000 0.0000
vn 0.0000 1.0000 0.0000
usemtl None
s off
f 113/197/43 114/198/43 116/199/43 115/200/43
f 115/200/44 116/199/44 120/201/44 119/202/44
f 119/202/45 120/201/45 118/203/45 117/204/45
f 117/204/46 118/203/46 114/205/46 113/206/46
f 115/207/47 119/202/47 117/204/47 113/208/47
f 120/201/48 116/209/48 114/210/48 118/203/48
o Cube.008_Cube.012
v -22.554144 16.674587 -85.295326
v -22.554144 17.403011 -85.295326
v -22.554144 16.674587 -87.607216
v -22.554144 17.403011 -87.607216
v -20.235655 16.674587 -85.295326
v -20.235655 17.403011 -85.295326
v -20.235655 16.674587 -87.607216
v -20.235655 17.403011 -87.607216
vt 0.375000 0.000000
vt 0.625000 0.000000
vt 0.625000 0.250000
vt 0.375000 0.250000
vt 0.625000 0.500000
vt 0.375000 0.500000
vt 0.625000 0.750000
vt 0.375000 0.750000
vt 0.625000 1.000000
vt 0.375000 1.000000
vt 0.125000 0.500000
vt 0.125000 0.750000
vt 0.875000 0.500000
vt 0.875000 0.750000
vn -1.0000 0.0000 0.0000
vn 0.0000 0.0000 -1.0000
vn 1.0000 0.0000 0.0000
vn 0.0000 0.0000 1.0000
vn 0.0000 -1.0000 0.0000
vn 0.0000 1.0000 0.0000
usemtl None
s off
f 121/211/49 122/212/49 124/213/49 123/214/49
f 123/214/50 124/213/50 128/215/50 127/216/50
f 127/216/51 128/215/51 126/217/51 125/218/51
f 125/218/52 126/217/52 122/219/52 121/220/52
f 123/221/53 127/216/53 125/218/53 121/222/53
f 128/215/54 124/223/54 122/224/54 126/217/54
